<?xml version="1.0" encoding="UTF-8" standalone="no"?>
<!-- Created with Inkscape (http://www.inkscape.org/) -->

<svg
   width="170.86024mm"
   height="68.477379mm"
   viewBox="0 0 170.86024 68.477379"
   version="1.1"
   id="svg1"
   xml:space="preserve"
   inkscape:version="1.4 (e7c3feb1, 2024-10-09)"
   sodipodi:docname="DTDG_Logo_edited.svg"
   xmlns:inkscape="http://www.inkscape.org/namespaces/inkscape"
   xmlns:sodipodi="http://sodipodi.sourceforge.net/DTD/sodipodi-0.dtd"
   xmlns="http://www.w3.org/2000/svg"
   xmlns:svg="http://www.w3.org/2000/svg"><sodipodi:namedview
     id="namedview1"
     pagecolor="#ffffff"
     bordercolor="#666666"
     borderopacity="1.0"
     inkscape:showpageshadow="2"
     inkscape:pageopacity="0.0"
     inkscape:pagecheckerboard="0"
     inkscape:deskcolor="#d1d1d1"
     inkscape:document-units="mm"
     inkscape:zoom="2.88"
     inkscape:cx="229.51389"
     inkscape:cy="28.472222"
     inkscape:window-width="1872"
     inkscape:window-height="887"
     inkscape:window-x="1968"
     inkscape:window-y="25"
     inkscape:window-maximized="0"
     inkscape:current-layer="layer1"
     showgrid="false" /><defs
     id="defs1"><inkscape:path-effect
       effect="offset"
       id="path-effect4"
       is_visible="true"
       lpeversion="1.3"
       linejoin_type="miter"
       unit="mm"
       offset="-0.3"
       miter_limit="4"
       attempt_force_join="false"
       update_on_knot_move="true" /><clipPath
       clipPathUnits="userSpaceOnUse"
       id="clipPath2"><rect
         style="fill:none;stroke:#000000;stroke-width:0.0490694;stroke-linecap:round;stroke-linejoin:round;paint-order:markers stroke fill"
         id="rect3"
         width="166.77419"
         height="18.406567"
         x="24.288277"
         y="98.137169" /></clipPath><clipPath
       clipPathUnits="userSpaceOnUse"
       id="clipPath4"><rect
         style="fill:none;stroke:none;stroke-width:0.587126;stroke-linecap:round;stroke-linejoin:round;stroke-dasharray:none;paint-order:markers stroke fill"
         id="rect5"
         width="189.87744"
         height="63.188725"
         x="11.517157"
         y="31.127451" /></clipPath></defs><g
     inkscape:groupmode="layer"
     id="layer2"
     inkscape:label="DaveTheDroneGuy Logo"
     transform="translate(-22.960872,-46.054133)"><path
       id="path122"
       style="display:inline;fill:#0000ff;stroke:none;stroke-width:0;stroke-dasharray:none"
       d="m 71.511914,99.515889 -0.706934,0.0047 -0.706933,0.0041 -0.0041,5.870441 c -0.0023,3.22845 -6.82e-4,5.87874 0.0036,5.8906 0.0061,0.0157 0.163494,0.0207 0.710551,0.0207 h 0.7028 l 0.0062,-2.62516 c 0.0053,-2.36751 0.0086,-2.64058 0.03359,-2.78226 0.105173,-0.59524 0.305025,-1.02449 0.645439,-1.38441 0.177255,-0.18741 0.356724,-0.31867 0.595313,-0.43511 0.359684,-0.17548 0.651163,-0.23697 1.126546,-0.23772 0.435218,-6.8e-4 0.677527,0.0512 0.964799,0.20619 0.55175,0.29761 0.850539,0.90632 0.912089,1.85932 0.0092,0.14213 0.01582,1.34772 0.01602,2.8236 l 5.17e-4,2.57607 0.698666,-0.004 0.698665,-0.004 v -2.74505 c -6e-5,-2.83569 -0.0014,-2.89259 -0.0677,-3.34036 -0.189127,-1.27754 -0.808089,-2.11688 -1.79989,-2.4412 -0.384793,-0.1258 -0.922458,-0.18496 -1.367875,-0.14986 -0.668641,0.0527 -1.197973,0.24925 -1.67535,0.62218 -0.179979,0.1406 -0.502378,0.47854 -0.653707,0.68472 l -0.124024,0.16898 -0.0041,-2.29082 z m 61.739386,0.274402 c -1.66973,-0.0048 -3.03269,0.478759 -4.01733,1.428339 -0.894,0.86216 -1.40617,2.00066 -1.57406,3.49849 -0.0356,0.31806 -0.0494,1.21261 -0.0243,1.57148 0.11428,1.63214 0.64177,2.89045 1.5968,3.80856 0.86745,0.83392 1.97976,1.29035 3.4308,1.40818 h 5.2e-4 c 0.26806,0.0217 1.19287,0.006 1.47123,-0.0243 1.21691,-0.1339 2.20839,-0.47804 3.16259,-1.09812 l 0.19431,-0.12609 v -2.435 -2.43499 h -2.00918 -2.00918 v 0.63665 0.63666 h 1.2485 1.2485 l -0.004,1.51618 -0.004,1.51619 -0.1695,0.0863 c -0.44033,0.22539 -0.95983,0.36965 -1.58336,0.43925 -0.3158,0.0353 -1.32918,0.0305 -1.61231,-0.008 -1.21197,-0.16371 -2.05435,-0.6445 -2.61741,-1.49345 -0.37285,-0.56214 -0.59706,-1.26214 -0.70125,-2.18902 -0.0408,-0.3629 -0.0407,-1.37106 0,-1.73632 0.10978,-0.98555 0.35854,-1.72297 0.78187,-2.31717 0.21944,-0.30802 0.60225,-0.65551 0.95343,-0.86507 0.63932,-0.38152 1.56632,-0.58152 2.54248,-0.54932 1.27785,0.0422 2.42247,0.47002 3.45612,1.29243 0.0773,0.0615 0.14983,0.11916 0.16123,0.12816 0.0167,0.013 0.0207,-0.14995 0.0207,-0.80306 v -0.81907 l -0.18604,-0.108 c -0.47122,-0.27328 -1.03166,-0.51099 -1.56373,-0.66301 -0.62528,-0.178647 -1.15444,-0.261184 -1.8557,-0.289904 -0.11402,-0.0047 -0.22665,-0.0069 -0.33796,-0.0072 z M 27.839128,99.993896 v 5.658054 5.65753 l 1.947168,-0.007 c 2.10146,-0.008 2.172726,-0.01 2.872176,-0.10335 1.460251,-0.19527 2.55108,-0.66552 3.31711,-1.42989 0.736546,-0.73495 1.160368,-1.72283 1.323433,-3.08508 0.04512,-0.37692 0.0629,-1.30452 0.03307,-1.71411 -0.123733,-1.69915 -0.670741,-2.93033 -1.654679,-3.72277 -0.751188,-0.60499 -1.771869,-0.9888 -3.08405,-1.16014 -0.591825,-0.0771 -0.647442,-0.0793 -2.749186,-0.0863 z m 59.183984,0 v 5.656504 5.6565 h 1.715658 c 0.943611,0 1.871927,-0.008 2.062923,-0.0165 1.575981,-0.0758 2.794103,-0.40226 3.68763,-0.98805 1.041439,-0.68277 1.669248,-1.71848 1.917196,-3.1626 0.13135,-0.765 0.157372,-1.75784 0.06666,-2.54196 -0.207492,-1.7936 -0.921532,-3.00972 -2.197799,-3.74241 -0.677715,-0.38907 -1.559472,-0.65507 -2.572452,-0.77566 -0.595175,-0.071 -0.636432,-0.0721 -2.683041,-0.0791 z m -27.433984,0.0021 v 0.644924 0.64492 h 2.009179 2.00918 v 5.01054 5.01055 h 0.768945 0.768946 v -5.01055 -5.01054 h 2.009179 2.00918 v -0.64492 -0.644924 h -4.787305 z m -30.21211,1.256764 0.888835,5.2e-4 c 1.271616,3.9e-4 1.777206,0.0242 2.286165,0.10852 0.355673,0.0589 0.770725,0.17465 1.072286,0.29869 1.000678,0.41162 1.647706,1.19668 1.927531,2.34043 0.111591,0.4561 0.157956,0.85934 0.170016,1.46864 0.0258,1.30372 -0.199577,2.30426 -0.683163,3.02876 -0.573985,0.85993 -1.493451,1.3312 -2.916618,1.49603 -0.19782,0.0229 -0.458978,0.0286 -1.492415,0.0346 l -1.252637,0.007 v -4.39147 z m 59.183985,0 0.897102,5.2e-4 c 0.909473,5e-4 1.52296,0.017 1.823145,0.0491 2.217038,0.23731 3.32052,1.29705 3.572909,3.43132 0.06257,0.5292 0.0586,1.35659 -0.0093,1.88567 -0.190588,1.48496 -0.778492,2.40761 -1.86862,2.93264 -0.543066,0.26156 -1.158981,0.40659 -1.976107,0.46509 -0.127331,0.009 -0.728224,0.0165 -1.335319,0.0165 h -1.103808 v -4.39043 z m -31.14952,1.35961 c -0.07972,0.001 -0.159459,0.004 -0.239262,0.009 -1.223427,0.0786 -2.146931,0.52093 -2.85564,1.36788 -0.328157,0.39217 -0.618298,0.94554 -0.768945,1.46554 -0.261259,0.9018 -0.296646,2.0349 -0.09147,2.93781 0.205772,0.90552 0.657603,1.64868 1.345654,2.21227 0.621531,0.50911 1.440591,0.81507 2.406055,0.89917 0.253968,0.0222 1.056499,0.008 1.336869,-0.0233 0.736521,-0.0824 1.469983,-0.26731 2.164726,-0.54622 l 0.152962,-0.0615 v -0.65991 c 0,-0.36285 -0.0036,-0.65939 -0.0083,-0.65939 -0.0047,0 -0.08099,0.0363 -0.169499,0.0806 -0.677213,0.33923 -1.358835,0.54944 -2.104264,0.64957 -0.367591,0.0496 -1.081092,0.054 -1.372526,0.009 -0.871656,-0.13512 -1.476264,-0.49071 -1.88619,-1.10949 -0.283881,-0.42852 -0.470439,-1.01474 -0.520899,-1.6366 l -0.01188,-0.14262 h 3.202388 3.201872 v -0.44235 c -2.66e-4,-0.72038 -0.04429,-1.15611 -0.163814,-1.62936 -0.20673,-0.8185 -0.626613,-1.49655 -1.224732,-1.97766 -0.2679,-0.21549 -0.50907,-0.35449 -0.843876,-0.48627 -0.442237,-0.1741 -0.991216,-0.26403 -1.549259,-0.25632 z m -16.219165,5.2e-4 c -0.737537,0.0139 -1.542951,0.15819 -2.364714,0.43356 -0.172806,0.0579 -0.342094,0.11676 -0.376204,0.13126 l -0.06201,0.0269 v 0.64441 c 0,0.35459 0.0027,0.64492 0.0062,0.64492 0.0035,0 0.06863,-0.0332 0.144694,-0.0734 0.546719,-0.28907 1.250545,-0.49978 1.932699,-0.57878 1.235969,-0.14319 2.170087,0.11439 2.666504,0.73484 0.248685,0.31081 0.36761,0.66092 0.38809,1.14412 l 0.0093,0.22634 -1.329117,0.007 c -1.42832,0.007 -1.453716,0.009 -1.966289,0.10232 -1.4338,0.26128 -2.268422,1.02927 -2.439127,2.24534 -0.209254,1.49067 0.438586,2.65152 1.708423,3.06183 0.187837,0.0607 0.454934,0.11689 0.672827,0.14159 v -5.1e-4 c 0.191579,0.0217 0.893909,0.007 1.091406,-0.0222 0.728531,-0.1094 1.235655,-0.33855 1.693953,-0.76584 0.171654,-0.16004 0.345021,-0.36121 0.472323,-0.54829 l 0.08268,-0.12144 0.0047,0.62994 0.0041,0.63045 h 0.703317 0.703316 l -0.0062,-2.69131 c -0.0055,-2.35901 -0.0095,-2.71785 -0.03307,-2.90628 -0.09549,-0.76427 -0.274952,-1.30582 -0.591695,-1.78594 -0.15838,-0.24008 -0.482688,-0.56679 -0.718303,-0.72347 -0.613537,-0.40799 -1.449525,-0.60494 -2.397786,-0.58704 z m 60.374092,0 c -0.20448,0.005 -0.46236,0.0284 -0.66094,0.0625 -0.85965,0.14763 -1.537528,0.58953 -1.990577,1.29759 l -0.08475,0.13229 v -0.64078 -0.64079 h -0.711067 -0.711068 v 4.23075 c 0,2.32634 0.0048,4.2343 0.01085,4.24108 0.0061,0.006 0.325832,0.0109 0.710551,0.0109 h 0.699699 l 0.0052,-2.5094 0.0052,-2.50941 0.03721,-0.22789 c 0.134437,-0.82689 0.434314,-1.39212 0.93741,-1.76785 0.248212,-0.18537 0.573292,-0.31999 0.938452,-0.38809 0.21448,-0.0397 0.77079,-0.0404 0.98185,-0.001 0.19377,0.0362 0.39816,0.1003 0.5395,0.1695 l 0.11162,0.0548 v -0.71675 c 0,-0.66816 -0.002,-0.71754 -0.0289,-0.72554 -0.058,-0.0178 -0.43043,-0.0613 -0.60771,-0.0703 -0.0522,-0.003 -0.11426,-0.003 -0.18242,-0.002 z m 14.01258,0 c -0.32983,-0.006 -0.6625,0.0287 -0.96325,0.1049 -0.7237,0.18345 -1.34311,0.64427 -1.83193,1.36271 -0.0269,0.0391 -0.0281,0.008 -0.0289,-0.60772 l -10e-4,-0.64905 h -0.7028 -0.7028 v 4.2416 l -5.1e-4,4.2416 h 0.70279 0.7028 v -2.44326 c 0,-2.43176 0.006,-2.71621 0.0584,-3.02462 0.16001,-0.93608 0.71631,-1.62423 1.52084,-1.88102 0.40752,-0.1301 0.92142,-0.15959 1.32911,-0.0765 0.66396,0.13542 1.08852,0.57322 1.2759,1.31517 0.11045,0.43732 0.1051,0.2589 0.1111,3.32796 l 0.006,2.78226 h 0.70229 0.70228 v -2.67477 c -3e-4,-2.74327 -0.005,-2.9716 -0.0672,-3.40238 -0.1913,-1.32054 -0.82815,-2.16536 -1.86759,-2.47788 -0.28854,-0.0868 -0.61532,-0.13312 -0.94516,-0.13901 z m 53.13681,0 c -0.55693,-0.003 -1.11547,0.0862 -1.58285,0.26872 -0.46088,0.17994 -0.79615,0.39914 -1.1498,0.75189 -0.78758,0.78555 -1.18856,1.94393 -1.18856,3.43235 0,1.32304 0.32338,2.40264 0.95395,3.18326 0.13078,0.1619 0.40755,0.42929 0.57878,0.55914 0.53826,0.40819 1.12798,0.61805 1.98075,0.70435 0.14925,0.0151 0.86901,-0.006 1.05007,-0.0305 0.40922,-0.0558 0.83438,-0.18564 1.18235,-0.3607 1.03928,-0.52286 1.73523,-1.56237 1.95699,-2.92282 0.0634,-0.38854 0.077,-0.58921 0.077,-1.13274 0,-0.56065 -0.0139,-0.75709 -0.0837,-1.16582 -0.24983,-1.46347 -1.02629,-2.52083 -2.20296,-3.00085 -0.45998,-0.18766 -1.01507,-0.28319 -1.572,-0.28629 z m 9.05681,0 c -0.4353,0.0128 -0.87677,0.1027 -1.23817,0.26096 -0.48522,0.21249 -0.9554,0.62423 -1.2733,1.11518 l -0.0744,0.11472 -0.004,-0.63975 -0.004,-0.64027 h -0.71055 -0.71106 v 4.23075 c 0,2.32634 0.005,4.2343 0.0108,4.24108 0.007,0.006 0.32576,0.0114 0.71003,0.0114 h 0.6997 l 0.006,-2.63343 c 0.007,-2.88501 7.5e-4,-2.71539 0.1049,-3.11144 0.21029,-0.79963 0.73576,-1.39045 1.43299,-1.6123 0.26848,-0.0854 0.4297,-0.10764 0.77256,-0.10697 0.34151,6.6e-4 0.5008,0.0268 0.73587,0.12092 0.47165,0.18886 0.7846,0.61122 0.92553,1.24954 0.0846,0.38233 0.0803,0.22191 0.0863,3.26181 l 0.006,2.83187 h 0.71055 0.71055 v -2.543 c 0,-2.73048 4.5e-4,-2.75906 0.0847,-3.1197 0.0466,-0.19962 0.13429,-0.44885 0.21239,-0.6041 0.16227,-0.32274 0.43482,-0.64426 0.69918,-0.82476 0.25462,-0.17385 0.5625,-0.29373 0.90537,-0.35243 0.19127,-0.0331 0.67282,-0.0287 0.84026,0.007 0.79977,0.17131 1.20916,0.7537 1.30896,1.86345 0.0112,0.12153 0.017,1.16136 0.0171,2.88148 v 2.69182 l 0.70693,-0.004 0.70693,-0.004 -5.1e-4,-2.76985 c -3e-4,-2.53214 -0.003,-2.79187 -0.0295,-3.02618 -0.0884,-0.78048 -0.26516,-1.32785 -0.58239,-1.80247 -0.38688,-0.57881 -0.91036,-0.91869 -1.60869,-1.04438 -0.23533,-0.0424 -0.77793,-0.0511 -1.02836,-0.0165 -0.98568,0.13631 -1.70628,0.60474 -2.28513,1.4857 -0.0666,0.10126 -0.13633,0.21155 -0.15503,0.24495 l -0.0336,0.0605 -0.0858,-0.20361 c -0.35046,-0.83439 -0.98674,-1.37977 -1.81075,-1.55184 -0.23782,-0.0497 -0.49691,-0.0697 -0.75809,-0.062 z m -95.304776,5.1e-4 c -0.552275,-0.0148 -1.119884,0.0627 -1.616438,0.22893 -1.169704,0.39149 -2.066463,1.35937 -2.435511,2.6293 -0.243322,0.83729 -0.287728,1.92371 -0.114204,2.79259 0.112202,0.56182 0.311317,1.05723 0.596346,1.48415 0.1702,0.25493 0.301665,0.41209 0.529166,0.63355 0.67303,0.65518 1.550901,1.02583 2.659786,1.12293 v 5.2e-4 c 0.246637,0.0216 1.069495,0.007 1.331185,-0.0238 0.768085,-0.0898 1.46019,-0.26494 2.162142,-0.54674 l 0.152962,-0.061 v -0.65991 c 0,-0.36285 -0.0025,-0.6599 -0.0057,-0.6599 -0.0032,0 -0.12786,0.059 -0.276986,0.13074 -0.689096,0.33157 -1.356452,0.52488 -2.123384,0.61598 -0.280331,0.0333 -1.011907,0.0289 -1.248503,-0.008 -0.218442,-0.0338 -0.46432,-0.0929 -0.642855,-0.15451 -0.89509,-0.30894 -1.489472,-1.05028 -1.695504,-2.11409 -0.0298,-0.15391 -0.07596,-0.50074 -0.07596,-0.57154 v -0.0486 h 3.201872 3.201872 l -0.0093,-0.60772 c -0.0093,-0.62577 -0.02671,-0.84564 -0.09508,-1.19476 -0.157923,-0.80644 -0.471946,-1.43537 -0.980819,-1.9637 -0.441246,-0.45812 -0.929308,-0.7395 -1.556494,-0.89762 -0.301462,-0.076 -0.627233,-0.11825 -0.958598,-0.12713 z m 79.281466,0 c -0.81152,0.0212 -1.58077,0.21396 -2.1854,0.57413 -0.36674,0.21846 -0.74306,0.54259 -0.98753,0.85163 -0.6221,0.78639 -0.92604,1.77958 -0.92604,3.02617 0,1.40558 0.39656,2.51204 1.187,3.31194 0.31235,0.31608 0.60401,0.5276 0.98754,0.71624 0.461,0.22675 0.9432,0.35849 1.5043,0.41083 h 5.2e-4 c 0.23858,0.0221 1.00096,0.009 1.24798,-0.0217 0.56732,-0.0705 1.07668,-0.20392 1.57097,-0.41134 l 0.2067,-0.0868 0.004,-0.65061 c 0.003,-0.35773 -7.5e-4,-0.6474 -0.008,-0.6444 -0.007,0.003 -0.12082,0.0586 -0.2527,0.12351 -0.67752,0.33372 -1.27031,0.48803 -1.96784,0.51263 -1.32985,0.0469 -2.26895,-0.50961 -2.71973,-1.61179 -0.40547,-0.99138 -0.37732,-2.50672 0.0636,-3.43338 0.35838,-0.75328 0.97982,-1.24268 1.78645,-1.40664 0.88788,-0.18049 1.93112,-0.008 2.90784,0.48163 0.0976,0.0489 0.18103,0.0889 0.18603,0.0889 0.005,0 0.009,-0.29323 0.009,-0.65164 v -0.65164 l -0.17777,-0.0744 c -0.77205,-0.32421 -1.62554,-0.4744 -2.43706,-0.45321 z m -55.40799,5.2e-4 c -0.3765,-0.005 -0.7549,0.0287 -1.08572,0.10335 -1.0593,0.23908 -1.8631,0.86732 -2.35541,1.84072 -0.31235,0.61758 -0.47635,1.3106 -0.51315,2.16834 -0.0319,0.74526 0.0426,1.48917 0.20619,2.05879 0.4617,1.60816 1.59539,2.56947 3.20704,2.71922 0.20264,0.0189 0.91046,0.009 1.09141,-0.0155 1.27301,-0.17113 2.21634,-0.83655 2.76882,-1.95285 0.30171,-0.60961 0.45306,-1.25677 0.49816,-2.12752 0.0526,-1.01772 -0.1159,-2.01606 -0.46405,-2.74505 -0.47148,-0.98727 -1.26032,-1.65005 -2.27893,-1.91513 -0.32337,-0.0841 -0.69785,-0.1289 -1.07436,-0.13436 z m 17.24908,0.005 c -0.22105,1.8e-4 -0.44391,0.007 -0.55914,0.0207 -0.96687,0.11401 -1.72521,0.46282 -2.34043,1.07642 -0.44637,0.44519 -0.74367,0.92554 -0.95911,1.55029 -0.18407,0.53388 -0.26195,1.01702 -0.27595,1.71204 -0.013,0.64713 0.0374,1.12637 0.16898,1.60662 0.45171,1.64816 1.78652,2.73561 3.56361,2.90267 0.10459,0.01 0.21624,0.0203 0.24804,0.0243 0.1113,0.0128 1.00193,-0.005 1.16582,-0.0227 0.76553,-0.0849 1.44197,-0.24983 2.15388,-0.52555 l 0.23564,-0.0915 v -0.65887 c 0,-0.36252 -0.005,-0.65939 -0.0124,-0.65939 -0.007,0 -0.10153,0.044 -0.21084,0.0977 -0.68853,0.33806 -1.40726,0.55534 -2.11667,0.63924 -0.31129,0.0368 -0.83361,0.0486 -1.09967,0.0253 -0.76482,-0.067 -1.36456,-0.32038 -1.80248,-0.76119 -0.19772,-0.19903 -0.34386,-0.40257 -0.47283,-0.66042 -0.16178,-0.32344 -0.29215,-0.78426 -0.33745,-1.1927 -0.01,-0.0864 -0.0214,-0.18867 -0.0264,-0.22737 l -0.009,-0.0703 h 3.20239 3.20239 l -0.007,-0.64079 c -0.005,-0.48324 -0.0144,-0.68958 -0.0357,-0.83923 -0.0976,-0.6865 -0.28109,-1.22751 -0.58032,-1.70945 -0.11344,-0.1827 -0.19101,-0.28558 -0.36484,-0.48369 -0.53426,-0.60888 -1.27665,-0.98066 -2.18178,-1.09244 -0.10852,-0.0134 -0.32775,-0.0198 -0.5488,-0.0196 z m -77.511549,0.20412 c -0.409278,0 -0.74414,0.003 -0.74414,0.006 0,0.004 2.346381,6.26371 3.145027,8.3907 l 0.03256,0.0873 h 0.948263 0.948262 l 0.03307,-0.0868 c 0.798647,-2.12699 3.144511,-8.38722 3.144511,-8.39122 0,-0.004 -0.333804,-0.006 -0.741557,-0.006 h -0.74104 l -1.320849,3.5481 c -0.882468,2.37048 -1.324519,3.53813 -1.332219,3.51813 -0.05481,-0.14215 -2.627746,-7.05451 -2.627746,-7.05951 0,-0.004 -0.334864,-0.007 -0.744141,-0.007 z m 100.866199,5.2e-4 c -0.69879,-1e-4 -0.74129,0.002 -0.73329,0.0289 0.005,0.0159 0.76895,1.87813 1.6986,4.13825 0.92965,2.26012 1.69574,4.12418 1.70274,4.14238 0.0138,0.0364 -0.2963,0.84255 -0.46612,1.21181 -0.22233,0.48343 -0.42702,0.74656 -0.67438,0.86713 -0.24266,0.11825 -0.43721,0.14479 -1.07073,0.14521 h -0.43409 v 0.58705 0.58704 h 0.62684 c 0.34464,0 0.70368,-0.008 0.79788,-0.0176 0.3922,-0.0397 0.74518,-0.14923 0.99736,-0.31006 0.52051,-0.33196 0.85135,-0.88675 1.51257,-2.53318 0.19177,-0.47749 1.06981,-2.66155 1.95078,-4.85345 l 1.60145,-3.98528 -0.7369,-0.004 c -0.40535,-0.003 -0.74228,0.001 -0.74828,0.008 -0.006,0.007 -0.60128,1.49122 -1.3224,3.29851 -0.72111,1.80729 -1.31588,3.28338 -1.32188,3.27938 -0.006,-0.004 -0.60197,-1.48815 -1.32447,-3.2985 l -1.31361,-3.29128 z m -8.5447,5.1e-4 0.006,2.84841 c 0.005,2.55492 0.009,2.8697 0.0336,3.05511 0.0965,0.717 0.26908,1.23164 0.56017,1.67018 0.12731,0.1918 0.41106,0.4886 0.59015,0.61754 0.36045,0.25953 0.848,0.43442 1.35909,0.48782 h 5.1e-4 c 0.0769,0.008 0.25859,0.0155 0.40411,0.0165 1.12017,0.009 1.96159,-0.41542 2.62723,-1.32447 l 0.11782,-0.16071 0.004,0.63613 0.004,0.63666 h 0.70229 0.7028 v -4.2416 -4.24161 h -0.7028 -0.7028 v 2.52595 c 0,2.7792 9.9e-4,2.75273 -0.10077,3.16208 -0.15186,0.61083 -0.47988,1.09792 -0.9493,1.40973 -0.36717,0.24389 -0.73643,0.35284 -1.25677,0.37104 -0.51862,0.0182 -0.88997,-0.0699 -1.20923,-0.28784 -0.12081,-0.0825 -0.31316,-0.28034 -0.39016,-0.40101 -0.2034,-0.31884 -0.3286,-0.73478 -0.3762,-1.2485 -0.0109,-0.11462 -0.017,-1.17123 -0.0171,-2.85667 v -2.67478 h -0.70332 z m -14.82545,0.97876 c 0.27453,-0.002 0.54383,0.0325 0.78444,0.10542 0.892,0.27026 1.47781,1.10579 1.53841,2.19366 l 0.0109,0.1943 h -2.17609 c -1.19683,0 -2.31117,0.005 -2.47634,0.0109 -0.28091,0.0102 -0.30024,0.009 -0.30024,-0.0186 0,-0.0576 0.0524,-0.383 0.0827,-0.51314 0.1799,-0.77288 0.605,-1.35155 1.2268,-1.6707 0.37958,-0.19484 0.85192,-0.2986 1.30948,-0.30179 z m 45.05771,5.1e-4 c 0.0894,-0.002 0.17992,0.002 0.27079,0.0109 0.69773,0.0677 1.21742,0.38124 1.61282,0.97255 0.41777,0.62478 0.59701,1.38542 0.57361,2.43292 -0.0127,0.5692 -0.0687,0.94139 -0.20516,1.36529 -0.30467,0.94676 -0.90922,1.53981 -1.7415,1.70791 v -5.2e-4 c -0.1515,0.0307 -0.62428,0.0435 -0.79013,0.0212 -1.38389,-0.18608 -2.15651,-1.51046 -2.06861,-3.54604 0.041,-0.9506 0.28845,-1.68041 0.75861,-2.23655 0.38442,-0.45472 0.96377,-0.71657 1.58957,-0.72761 z m -111.082624,10e-4 c 0.383713,0.01 0.736142,0.0923 1.030944,0.24546 0.586681,0.30476 1.000536,0.88971 1.140499,1.61282 0.03418,0.17656 0.07941,0.60944 0.06511,0.62374 v 5.1e-4 c -0.0041,0.004 -1.118888,0.009 -2.477369,0.0124 l -2.470133,0.005 0.01033,-0.12144 c 0.0057,-0.0669 0.02904,-0.21323 0.05168,-0.32504 0.218281,-1.07806 0.913061,-1.79472 1.930631,-1.99109 0.24677,-0.0476 0.488075,-0.0682 0.718303,-0.0625 z m 24.872383,0.001 c 0.141037,0.003 0.276745,0.0145 0.400493,0.0357 0.619828,0.10569 1.106648,0.43373 1.445906,0.9741 0.220328,0.35095 0.353239,0.80196 0.383439,1.29914 l 0.01137,0.1819 h -2.174544 c -1.195908,0 -2.31081,0.005 -2.477368,0.0109 l -0.302824,0.0114 0.01188,-0.12971 c 0.02323,-0.2564 0.111183,-0.61979 0.210323,-0.86817 0.308448,-0.77278 0.943667,-1.2939 1.771469,-1.45365 0.235036,-0.0454 0.48479,-0.0661 0.719852,-0.0615 z m 23.849191,0.005 c 0.30824,0 0.49831,0.0276 0.73484,0.10645 0.88999,0.29689 1.49674,1.21618 1.63659,2.47892 0.0873,0.7885 0.0212,1.5913 -0.18242,2.21589 -0.0739,0.22668 -0.24261,0.57278 -0.37258,0.76481 -0.14791,0.21855 -0.45819,0.52283 -0.65784,0.64492 -0.19059,0.11655 -0.43545,0.21363 -0.65423,0.25993 -0.19291,0.0407 -0.63815,0.0581 -0.83147,0.032 -0.27659,-0.0373 -0.58499,-0.13886 -0.79582,-0.262 -0.63966,-0.37357 -1.07066,-1.10189 -1.22421,-2.06809 -0.10181,-0.64084 -0.0864,-1.41468 0.0408,-2.04587 0.11833,-0.5869 0.37946,-1.11213 0.73794,-1.48466 0.42867,-0.44547 0.90882,-0.64234 1.56838,-0.64234 z m -63.559428,3.23029 h 0.825272 l -0.01033,0.37621 c -0.01399,0.52156 -0.06645,0.84939 -0.195337,1.22318 -0.226738,0.65757 -0.668093,1.18145 -1.229899,1.45986 -0.208916,0.10353 -0.392337,0.16341 -0.63252,0.20671 -0.203863,0.0368 -0.666812,0.0464 -0.866613,0.0176 -0.281655,-0.0405 -0.503736,-0.11606 -0.734322,-0.24909 -0.160052,-0.0923 -0.408321,-0.34372 -0.498161,-0.50436 -0.26261,-0.46957 -0.269717,-1.17154 -0.01705,-1.66088 0.05207,-0.10085 0.104819,-0.16963 0.218075,-0.28318 0.133113,-0.13346 0.170179,-0.1601 0.339514,-0.2434 0.207696,-0.10219 0.381614,-0.15748 0.686263,-0.21808 0.476399,-0.0949 0.973964,-0.12433 2.115117,-0.12454 z m 111.035598,2.33113 v 0.9679 0.96635 l 0.80615,-0.004 0.80616,-0.004 v -0.95912 -0.95911 l -0.80616,-0.004 z"
       inkscape:label="DaveTheDroneGuy"
       inkscape:export-filename="../../Desktop/DTDG_Logo.png"
       inkscape:export-xdpi="600"
       inkscape:export-ydpi="600" /><path
       id="path126"
       style="display:inline;fill:#808000;stroke:none;stroke-width:0;stroke-dasharray:none"
       d="m 105.97337,82.162953 c 0.1802,0.104622 3.4467,1.990104 3.46077,1.990576 0.0164,-0.900348 0.007,-1.80154 0.004,-2.702161 -1.88494,-0.361161 -3.03192,0.35665 -3.46477,0.711585 z m 3.80391,-0.588591 c -0.0248,0 -0.0166,4.001823 -0.01,4.001823 0.007,0 0.92995,-0.530936 2.34404,-1.344621 -0.31206,-1.596523 -2.05044,-2.657202 -2.33492,-2.657202 z m -4.05919,0.805119 c -0.26937,0.270019 -1.34247,1.465238 -1.14749,3.196187 h -5.2e-4 c 0.0104,0.09128 0.0218,0.165881 0.0248,0.165881 0.42382,-0.241204 3.46033,-1.987481 3.46128,-2.004012 -0.77299,-0.463477 -1.55789,-0.906793 -2.33807,-1.358056 z m 6.45439,2.188012 c -1.1271,0.685694 -2.37439,1.257011 -3.4339,2.00918 0.62137,0.371058 2.28058,1.328414 2.30632,1.330151 0.0512,0.0035 0.44874,-0.480372 0.61702,-0.750859 0.28418,-0.456785 0.4914,-1.074711 0.5457,-1.626774 0.0314,-0.318712 0.008,-0.961698 -0.0351,-0.961698 z m -5.18056,0.168982 c -0.51564,0.28228 -2.30505,1.308142 -2.32027,1.349271 -0.0159,0.04133 0.15698,0.527727 0.26871,0.75551 0.39141,0.797958 1.07167,1.454428 1.87689,1.811259 l 0.17364,0.077 c -0.005,-1.330935 0.0182,-2.662174 0.001,-3.993038 z m 0.34416,1.401981 c -0.006,0 -0.006,1.061659 -0.006,2.706812 l 0.1447,0.03462 c 0.20206,0.04856 0.43001,0.08548 0.62425,0.101286 h 5.1e-4 c 0.24267,0.0197 0.31155,0.01986 0.54726,0.001 0.74081,-0.05918 1.41012,-0.302961 2.00349,-0.730188 0.075,-0.05403 0.13643,-0.104855 0.13643,-0.112655 -1.14219,-0.678524 -2.29522,-1.344084 -3.45064,-2.000875 z"
       sodipodi:nodetypes="csccsccssssccsscsccssccssssscccccccssc"
       inkscape:label="Lense" /><path
       id="path127"
       style="display:inline;fill:#dc143c;stroke:none;stroke-width:0;stroke-dasharray:none"
       d="m 159.13551,46.054553 c -0.49283,-0.01253 -0.96021,0.293147 -1.13482,0.805119 l -0.0439,0.128674 -0.01,2.245341 -0.30954,-0.01137 c -0.17017,-0.0062 -0.43976,-0.01817 -0.59893,-0.02687 -0.15916,-0.0087 -0.56473,-0.03114 -0.90124,-0.04961 -0.62556,-0.03433 -1.45466,-0.08377 -2.6293,-0.156579 -2.02227,-0.125356 -2.79005,-0.171672 -3.96048,-0.239262 -0.74031,-0.04275 -1.28384,-0.07209 -2.76159,-0.149345 -1.39525,-0.07295 -3.65196,-0.162381 -5.00228,-0.197921 -0.34561,-0.0091 -0.76233,-0.02032 -0.92604,-0.02532 -1.44018,-0.04388 -4.53331,-0.03952 -5.96966,0.0083 -2.80563,0.09334 -4.91416,0.297914 -6.58151,0.639238 -2.2591,0.462462 -3.53575,1.162412 -3.84163,2.105814 -0.0394,0.12161 -0.069,0.288516 -0.0692,0.392741 v 0.07028 h 33.55247 v 2.955375 l -0.18603,0.03669 c -1.86331,0.365266 -3.26138,1.409828 -3.64112,2.720248 -0.0858,0.296867 -0.092,0.395422 -0.092,1.582332 v 1.098124 l -0.94671,0.129191 c -10.62282,1.452308 -20.26456,2.641669 -28.76104,3.284554 -0.3638,0.02752 -0.75283,0.05766 -0.86454,0.06666 l -0.20309,0.01654 -0.33693,-0.09043 c -0.39134,-0.105029 -1.1728,-0.301759 -1.44798,-0.364319 -0.67568,-0.153623 -0.91696,-0.205482 -1.46347,-0.31471 -8.38122,-1.675102 -18.4568,-1.411373 -26.171531,0.68523 l -0.307992,0.08423 -0.444417,-0.03307 C 85.283245,62.869716 76.725648,61.897948 63.637459,60.107442 l -0.887801,-0.121439 -0.0062,-1.165821 c -0.006,-1.125379 -0.0077,-1.17149 -0.04237,-1.324983 -0.131995,-0.583565 -0.418501,-1.077074 -0.898136,-1.54771 -0.669422,-0.656861 -1.677277,-1.149402 -2.781226,-1.359607 -0.09824,-0.01871 -0.181935,-0.03411 -0.186035,-0.03411 -0.0041,0 -0.0072,-0.663111 -0.0072,-1.473295 v -1.472778 l 0.103352,0.0093 c 0.05684,0.005 0.211254,0.0133 0.343132,0.0186 0.671058,0.02674 1.714553,0.0861 4.34082,0.24753 7.752766,0.476531 11.275087,0.619335 15.271419,0.6196 2.742923,1.82e-4 4.674041,-0.07304 6.564974,-0.24908 4.488062,-0.417819 6.798409,-1.372979 6.922575,-2.861841 L 92.385613,49.2621 H 58.828451 v -1.087272 c -3.1e-4,-1.168371 -0.0024,-1.194679 -0.08785,-1.405082 -0.0893,-0.219758 -0.270628,-0.430754 -0.475424,-0.552421 -0.59105,-0.351137 -1.356175,-0.114758 -1.646927,0.509013 -0.105345,0.226005 -0.104117,0.216226 -0.104387,1.418001 l -5.17e-4,1.089339 -0.30179,-0.01085 c -0.51252,-0.01921 -2.021032,-0.102691 -3.352767,-0.185001 -0.222828,-0.01377 -0.7028,-0.04312 -1.066602,-0.06563 -2.092244,-0.129472 -3.273364,-0.199682 -5.159375,-0.305408 -1.864305,-0.104509 -4.616663,-0.21967 -6.283854,-0.26355 -0.345612,-0.0091 -0.76233,-0.02084 -0.926041,-0.02584 -0.163711,-0.005 -0.911841,-0.01642 -1.662431,-0.02532 -3.530031,-0.042 -6.513536,0.07379 -8.772075,0.340548 C 25.732717,49.07717 23.794758,49.78019 23.17998,50.8 c -0.132121,0.219166 -0.219108,0.498382 -0.219108,0.702283 v 0.09147 h 33.552474 v 1.477946 1.477429 l -0.186035,0.03669 c -2.000263,0.392111 -3.457733,1.568046 -3.700032,2.985348 -0.03223,0.188816 -0.03296,0.266101 -0.03307,2.76779 l -5.17e-4,2.574003 -0.132292,0.115755 c -0.429235,0.375158 -0.730772,0.859632 -0.825272,1.3255 -0.255907,1.261601 0.850004,2.476587 2.867525,3.149679 0.652927,0.217831 1.418201,0.368485 2.27428,0.448035 0.353057,0.03279 1.525917,0.02733 1.885156,-0.0088 1.179402,-0.118599 2.168713,-0.373034 3.006018,-0.77308 0.307723,-0.147022 0.490366,-0.251234 0.766361,-0.437699 l 0.225827,-0.152446 1.229382,0.24443 c 9.333001,1.857089 15.939419,3.548988 18.454171,4.061767 l 0.04289,0.0088 -0.03669,0.151412 c -0.0754,0.312164 -0.09827,0.525275 -0.09767,0.920358 4.7e-4,0.306972 0.007,0.409458 0.03721,0.585494 0.05759,0.335521 0.166602,0.724383 0.270268,0.966349 0.01689,0.03941 0.03049,0.07475 0.03049,0.07855 0,0.0038 -1.919883,0.0067 -4.266406,0.0067 h -4.266406 c -0.01203,-0.590576 -0.01947,-1.161317 -0.0925,-1.789038 -0.01334,-0.114696 -0.181054,-0.242529 -0.286288,-0.310059 -0.229761,-0.14744 -0.524203,-0.164098 -0.770495,-0.04341 -0.205417,0.100659 -0.336572,0.247059 -0.414962,0.463021 l -0.03979,0.110071 c -0.0073,0.51667 0.01803,1.040308 -0.02067,1.552877 -0.13783,-3.02e-4 -1.905618,-0.100293 -3.352767,-0.189653 -3.5276,-0.217826 -5.281714,-0.307757 -7.276042,-0.372587 -2.155956,-0.07009 -4.572303,-0.06989 -6.077148,5.17e-4 -3.346774,0.156594 -5.387714,0.616666 -6.160865,1.388029 -0.216057,0.215558 -0.33056,0.435419 -0.35605,0.684196 l -0.01137,0.11007 23.246643,0.0082 c 0.0025,0.68437 0.0057,1.368737 0.0088,2.053104 l -0.219108,0.04548 c -0.307317,0.06359 -0.721564,0.204387 -0.996839,0.338997 -0.865008,0.422988 -1.405612,1.069958 -1.496032,1.791105 -0.0107,0.08545 -0.01695,0.783489 -0.01705,1.881022 l -5.17e-4,1.745113 -0.114205,0.103353 c -0.232084,0.209706 -0.431234,0.509433 -0.513664,0.77308 -0.05037,0.161087 -0.06241,0.436562 -0.02687,0.608231 0.220725,1.066095 1.771911,1.894518 3.769279,2.012797 h 5.17e-4 c 0.292602,0.01732 0.815012,0.0056 1.152385,-0.02584 1.705526,-0.158789 3.082496,-0.897853 3.397208,-1.823144 0.08361,-0.24583 0.0926,-0.485702 0.02739,-0.720887 l -0.02997,-0.109554 0.03462,-0.0078 c 4.617254,-0.638479 9.240801,-1.235573 13.876155,-1.727543 0.734588,-0.07633 0.920775,-0.09705 0.927075,-0.103353 0.0024,-0.0024 -0.06866,-0.0926 -0.158129,-0.199988 -0.511916,-0.614481 -0.778843,-1.243786 -0.804603,-1.896525 -0.0085,-0.21652 -0.0045,-0.270587 0.04186,-0.555522 0.0574,-0.352692 0.05688,-0.35148 0.199471,-0.684712 0.125958,-0.294364 0.171138,-0.376387 0.322461,-0.587045 0.06533,-0.09095 0.153021,-0.213731 0.194821,-0.272851 0.0418,-0.05912 0.223603,-0.252977 0.404109,-0.430982 0.273754,-0.269959 0.389273,-0.369442 0.695048,-0.598413 0.201621,-0.150977 0.476953,-0.339239 0.611849,-0.418579 0.134896,-0.07934 0.311858,-0.185238 0.393258,-0.235128 0.176118,-0.107939 0.567443,-0.304857 1.035596,-0.521415 2.081818,-0.963008 5.274005,-1.728518 8.593795,-2.060856 3.10621,-0.310956 6.14859,-0.31108 9.2723,0 3.32272,0.3309 6.56876,1.114611 8.63358,2.084111 0.7268,0.341258 1.40045,0.716357 1.77147,0.987019 0.44275,0.322983 0.62718,0.475571 0.90382,0.747242 0.31688,0.311197 0.41958,0.433527 0.64596,0.768945 0.17413,0.258002 0.17865,0.266463 0.31315,0.598413 0.13126,0.323886 0.13181,0.326784 0.18501,0.691948 0.0354,0.243085 0.0421,0.335551 0.0351,0.504361 -0.0272,0.658748 -0.32934,1.339312 -0.86972,1.959571 l -0.10077,0.115755 0.062,0.0124 c 0.0342,0.0067 0.32247,0.03835 0.64079,0.0708 5.69071,0.580205 14.06878,1.743625 14.10767,1.752348 l 0.0351,0.0078 -0.0305,0.109554 c -0.25803,0.930526 0.64588,1.876937 2.2164,2.320789 0.39836,0.112583 0.83264,0.190414 1.30741,0.234094 0.31569,0.02901 1.02277,0.02506 1.35599,-0.0078 1.83929,-0.181097 3.22034,-0.962315 3.45819,-1.95647 0.0452,-0.1888 0.0372,-0.465495 -0.0186,-0.641821 -0.0817,-0.257998 -0.22357,-0.480102 -0.45786,-0.715719 l -0.16898,-0.169499 -0.006,-1.814876 c -0.007,-1.960526 -0.003,-1.884902 -0.0951,-2.153357 -0.20224,-0.588726 -0.72854,-1.116396 -1.4609,-1.46451 -0.24335,-0.115672 -0.67177,-0.257539 -0.94878,-0.314709 l -0.2191,-0.04548 v -2.0283 h 0.10697 c 0.21411,0 1.02672,0.04626 4.20077,0.239262 3.18006,0.19337 4.73487,0.267265 7.19336,0.342615 0.89714,0.0275 3.89238,0.02799 4.59714,5.17e-4 1.42614,-0.05559 2.53169,-0.142363 3.43131,-0.269234 2.06002,-0.290521 3.25618,-0.779833 3.60702,-1.474846 0.057,-0.112938 0.11369,-0.318291 0.11369,-0.411861 v -0.06356 h -23.25026 c -0.02,-0.551492 0.0419,-1.111524 -0.0331,-1.658297 -0.15423,-0.499347 -0.75483,-0.721439 -1.19217,-0.4408 -0.10524,0.06753 -0.23409,0.207059 -0.28629,0.310059 -0.16488,0.560613 -0.0925,1.189862 -0.0925,1.775602 l -0.18603,-0.0098 c -0.10232,-0.0056 -0.40184,-0.02147 -0.6656,-0.03514 -0.51452,-0.02667 -1.08348,-0.0593 -1.71979,-0.0987 -2.80944,-0.17396 -4.25782,-0.257399 -5.35419,-0.308509 -0.3157,-0.01472 -0.44064,-0.02592 -0.43564,-0.03927 0.0191,-0.0497 0.0952,-0.379158 0.11679,-0.505912 0.0851,-0.498175 0.0676,-1.051947 -0.0491,-1.535824 -0.0209,-0.08637 -0.0371,-0.157863 -0.0351,-0.159163 6.13935,-1.41179 12.27814,-2.83194 18.45624,-4.065902 l 1.27227,-0.253731 0.15813,0.112138 c 0.82383,0.584246 2.01127,1.010712 3.31659,1.190625 0.4619,0.06367 0.75913,0.08548 1.29812,0.09508 1.05557,0.01879 1.94202,-0.07976 2.85254,-0.316777 1.90704,-0.496411 3.20986,-1.503341 3.40702,-2.633948 0.1205,-0.690964 -0.17653,-1.407814 -0.8232,-1.985925 l -0.13643,-0.121956 -0.009,-2.639633 c -0.009,-2.604304 -0.009,-2.642161 -0.0434,-2.788977 -0.13306,-0.572402 -0.40891,-1.054203 -0.86403,-1.509468 -0.6726,-0.67282 -1.67865,-1.168965 -2.82515,-1.393714 l -0.18604,-0.03669 V 51.60759 l 0.10336,0.0093 c 0.0568,0.0051 0.21497,0.0133 0.3514,0.0186 0.59651,0.02313 1.68402,0.08451 3.80338,0.214974 4.77264,0.293797 6.74012,0.401549 9.19427,0.503328 2.86057,0.118628 4.75906,0.156638 7.19336,0.144178 1.72883,-0.0088 2.20096,-0.01853 3.36517,-0.06976 4.90263,-0.215742 7.90645,-0.886316 9.03614,-2.017448 0.302,-0.302393 0.47303,-0.648452 0.50023,-1.012341 l 0.0103,-0.136426 H 160.2636 c -0.0969,-0.820721 0.19758,-1.752282 -0.1049,-2.535762 -0.11181,-0.239858 -0.30111,-0.435299 -0.53175,-0.549321 -0.15999,-0.07909 -0.32717,-0.118295 -0.49144,-0.122473 z m -51.06149,9.612333 c -1.64321,0.02442 -3.12945,0.214535 -4.60178,0.588595 -3.682252,0.935517 -6.31451,2.844617 -7.047118,5.110799 -0.03234,0.100039 -0.05891,0.189138 -0.05891,0.198438 0,0.02227 -0.03002,0.02687 0.394291,-0.05684 2.501041,-0.493454 5.233457,-0.82571 8.088907,-0.98392 2.51449,-0.139317 5.34624,-0.121426 7.90443,0.05013 2.5312,0.169743 4.85932,0.468163 7.2254,0.926042 0.23129,0.04476 0.42388,0.07758 0.42788,0.07338 0.0119,-0.01194 -0.0914,-0.328189 -0.17312,-0.529167 -0.56896,-1.399775 -1.89421,-2.670946 -3.78426,-3.629753 -0.6271,-0.318124 -1.20265,-0.557646 -1.90996,-0.794783 -2.0055,-0.672369 -4.1434,-0.987424 -6.46576,-0.952914 z m 51.26561,6.757211 c 0.38675,0.01171 0.77195,0.04893 1.10536,0.11007 1.66984,0.306223 2.85185,1.15683 2.90525,2.090312 0.008,0.139711 0.004,0.178617 -0.0419,0.351917 -0.15274,0.58208 -0.58635,1.0405 -1.34204,1.419035 -0.67614,0.338691 -1.50306,0.539175 -2.44739,0.593245 -0.6523,0.03735 -1.30945,-0.01289 -1.95699,-0.149345 -1.24678,-0.262737 -2.23671,-0.862716 -2.57452,-1.560628 -0.22485,-0.464549 -0.1668,-0.964724 0.16278,-1.406633 0.53075,-0.711631 1.6828,-1.238346 3.07423,-1.405082 0.3401,-0.04075 0.72843,-0.0546 1.11518,-0.04289 z m -101.99481,0.0026 c 1.306443,-0.05557 2.573512,0.217851 3.459737,0.746724 0.582057,0.347355 0.943817,0.757408 1.075904,1.219564 0.04198,0.146856 0.04266,0.476765 0.001,0.628385 -0.184352,0.671383 -0.90999,1.266791 -1.986442,1.629875 -0.571764,0.192854 -1.1314,0.296487 -1.81901,0.337447 -1.610687,0.09594 -3.214859,-0.349214 -4.065902,-1.128097 -0.458635,-0.419744 -0.676127,-0.990313 -0.556038,-1.459859 0.198607,-0.776545 1.16084,-1.462344 2.505273,-1.785937 0.255434,-0.06148 0.440557,-0.09633 0.702799,-0.131258 0.285251,-0.03799 0.341554,-0.04233 0.682646,-0.05684 z m 75.80674,12.781131 h 4.78317 4.78317 v 2.065507 l -0.062,0.0098 c -0.14503,0.02332 -0.58818,0.141821 -0.74052,0.197921 -0.45466,0.167445 -0.9053,0.436481 -1.19734,0.714168 -0.33842,0.321778 -0.53712,0.635194 -0.63769,1.00614 -0.0281,0.103666 -0.043,0.132992 -0.0677,0.135392 -2.87407,-0.604568 -5.72342,-1.324172 -8.5664,-2.060339 -0.28302,-0.07354 -0.5201,-0.133842 -0.5271,-0.133842 -0.007,0 0.087,-0.06877 0.20877,-0.152962 0.56981,-0.394047 1.05125,-0.789086 1.51309,-1.240751 0.14676,-0.143521 0.32161,-0.323999 0.38861,-0.401009 z m -59.093031,0.03307 h 0.10852 c 0.154918,0 1.164217,0.05511 2.570386,0.14056 2.553204,0.155153 2.87759,0.174356 3.753776,0.222726 1.18842,0.0656 2.065126,0.108353 2.94349,0.143143 l 0.719335,0.02842 0.124024,0.117306 c 0.381722,0.359671 0.992599,0.844294 1.470711,1.166854 0.09178,0.06192 0.102144,0.07394 0.07441,0.08527 -0.03601,0.01471 -0.988091,0.261217 -2.322339,0.601514 -2.196214,0.560141 -4.447293,1.09707 -6.205822,1.480529 -0.289056,0.06303 -0.534544,0.114722 -0.545704,0.114722 -0.01161,0 -0.0362,-0.06128 -0.05736,-0.143144 -0.04541,-0.175681 -0.171045,-0.442273 -0.288355,-0.612365 -0.358717,-0.520119 -1.022622,-0.959032 -1.793689,-1.185974 -0.1586,-0.04668 -0.498579,-0.125574 -0.541569,-0.125574 -0.01538,-0.677653 -0.0098,-1.356061 -0.0098,-2.033985 z m 46.154291,1.115695 c 0,0.0033 0.0988,0.07051 0.21911,0.149861 1.01741,0.670776 1.54949,1.363904 1.63349,2.127002 0.088,0.79968 -0.40491,1.61009 -1.41904,2.333708 -1.13733,0.811517 -2.97519,1.517045 -5.19606,1.994193 -0.41597,0.08937 -1.02553,0.205804 -1.03353,0.197404 -0.003,-0.0028 -0.0325,-0.07958 -0.0662,-0.170532 -0.25472,-0.68643 -0.59195,-1.278025 -1.05265,-1.846916 -0.20193,-0.24935 -0.70618,-0.746257 -0.94464,-0.931209 l -0.19172,-0.148828 0.003,-0.502812 0.003,-0.502811 0.24805,-0.05323 c 0.8654,-0.187133 1.4228,-0.403089 1.68413,-0.65164 0.12421,-0.118129 0.16581,-0.197297 0.16588,-0.315226 6e-5,-0.105511 -0.0293,-0.170082 -0.12505,-0.273885 -0.38028,-0.412558 -1.72846,-0.778202 -3.46956,-0.940511 -3.34364,-0.311699 -7.0951,0.110995 -7.99228,0.90072 -0.11463,0.100895 -0.1682,0.201418 -0.16743,0.313676 8.2e-4,0.119543 0.0449,0.201433 0.1695,0.316776 0.27197,0.251796 0.82676,0.466321 1.68155,0.65009 l 0.24805,0.05323 0.004,0.497644 0.004,0.497127 -0.20257,0.161747 c -0.25218,0.200945 -0.76807,0.714845 -0.96067,0.957048 -0.4532,0.569955 -0.81557,1.212255 -1.03611,1.837097 -0.0284,0.08038 -0.0544,0.148829 -0.0574,0.151929 -0.003,0.0031 -0.14948,-0.02142 -0.32556,-0.05426 -2.218734,-0.413856 -4.145032,-1.061324 -5.419308,-1.822111 -1.889527,-1.128114 -2.404761,-2.472334 -1.436605,-3.748091 0.264914,-0.349083 0.700422,-0.731781 1.194242,-1.049549 0.262724,-0.169056 0.261846,-0.168675 -0.23151,0.03049 -1.725447,0.696548 -2.904943,1.510489 -3.413229,2.355929 -0.107975,0.179597 -0.181738,0.351796 -0.236678,0.550871 -0.0514,0.186258 -0.0517,0.616871 -5.16e-4,0.799951 0.0836,0.299075 0.229337,0.57678 0.443383,0.845426 1.183238,1.485069 4.445408,2.815174 8.545731,3.484542 0.28343,0.04627 0.53277,0.08768 0.55397,0.09198 0.0344,0.007 0.0375,0.01482 0.0295,0.06925 -0.0569,0.383253 -0.003,1.205533 0.11524,1.756482 0.26429,1.23117 0.86503,2.320072 1.77043,3.209106 0.81325,0.798548 1.76625,1.337458 2.86184,1.617989 0.38512,0.09861 0.68667,0.146499 1.19528,0.190169 h 5.1e-4 c 0.16446,0.01412 0.88076,-0.006 1.08314,-0.03049 1.31926,-0.1593 2.47455,-0.666068 3.45561,-1.515669 0.95876,-0.830297 1.64881,-1.940566 1.98282,-3.189987 0.14976,-0.560124 0.23175,-1.335246 0.19585,-1.852083 -0.009,-0.131878 -0.0138,-0.24268 -0.0108,-0.24598 0.003,-0.0033 0.16437,-0.03124 0.35812,-0.06201 2.06864,-0.328586 3.94818,-0.819039 5.46995,-1.42782 2.1878,-0.875219 3.47341,-1.891568 3.74189,-2.958476 0.0549,-0.216404 0.0504,-0.577998 -0.009,-0.801501 -0.0511,-0.191382 -0.17233,-0.453146 -0.29352,-0.63407 -0.47317,-0.706383 -1.43342,-1.402554 -2.76883,-2.006596 -0.35481,-0.160487 -1.00045,-0.421813 -1.00045,-0.405143 z m -11.806,4.168221 c 0.23016,0.0017 0.46235,0.01199 0.58498,0.02997 0.88169,0.1293 1.62662,0.453048 2.32337,1.009757 0.16691,0.133361 0.546,0.514438 0.6842,0.687814 0.50881,0.638298 0.84562,1.407811 0.96066,2.194698 0.1047,0.716179 0.0647,1.340376 -0.12971,2.015897 -0.21987,0.763884 -0.67683,1.507885 -1.26504,2.06034 -0.72771,0.683477 -1.6955,1.132095 -2.66443,1.235067 -0.88724,0.09429 -1.77072,-0.06025 -2.55489,-0.446485 -0.47961,-0.236231 -0.83431,-0.492526 -1.233,-0.890902 -0.38568,-0.385379 -0.62129,-0.707785 -0.85782,-1.174605 -0.2592,-0.511588 -0.40698,-1.004605 -0.47388,-1.579232 -0.0356,-0.305468 -0.0237,-0.876824 0.0248,-1.195275 0.15427,-1.012124 0.58383,-1.861774 1.30689,-2.584339 0.7562,-0.755682 1.63016,-1.186605 2.72128,-1.34152 0.1143,-0.01621 0.34242,-0.02289 0.57258,-0.02119 z m 34.98029,2.198315 c 1.24774,-0.03045 2.46356,0.378822 2.91559,1.071252 0.14465,0.222298 0.19826,0.499407 0.13746,0.715202 -0.18431,0.653919 -0.99418,1.150253 -2.1761,1.333769 -0.16628,0.02582 -0.31611,0.03476 -0.66146,0.03876 -0.24556,0.0029 -0.47256,0.002 -0.50436,-0.0016 -0.0318,-0.0036 -0.12857,-0.01459 -0.21497,-0.02429 -0.26535,-0.02982 -0.63324,-0.11041 -0.894,-0.19637 -0.64743,-0.213423 -1.11382,-0.54798 -1.30483,-0.935344 -0.0782,-0.158637 -0.0987,-0.241801 -0.0992,-0.402042 -5.3e-4,-0.159803 0.0211,-0.244614 0.1111,-0.433049 0.0661,-0.138399 0.0951,-0.176512 0.24236,-0.322978 0.30087,-0.299187 0.68504,-0.508188 1.21698,-0.660941 0.39593,-0.113695 0.81554,-0.172268 1.23145,-0.182418 z m -69.872217,0.0052 c 0.931712,0.0448 1.822159,0.329461 2.321305,0.837158 0.16404,0.166849 0.236384,0.276102 0.302824,0.458887 0.03737,0.102743 0.04411,0.147989 0.04393,0.295072 -2.44e-4,0.197035 -0.02934,0.302167 -0.133842,0.482141 -0.08408,0.144805 -0.328299,0.384576 -0.518832,0.50953 -0.395703,0.259507 -0.897203,0.433967 -1.529622,0.532267 -0.167743,0.02608 -0.314885,0.03486 -0.669727,0.03876 -0.496768,0.0055 -0.481328,0.0059 -0.826822,-0.04237 -0.429125,-0.05994 -0.861461,-0.184432 -1.196827,-0.345199 -0.475968,-0.228169 -0.826177,-0.565081 -0.95498,-0.918807 -0.02841,-0.07789 -0.03591,-0.136319 -0.03617,-0.272851 -3.77e-4,-0.193653 0.03225,-0.308921 0.139527,-0.491443 0.07702,-0.131052 0.306391,-0.356363 0.489892,-0.481108 0.66451,-0.451739 1.63764,-0.646833 2.569353,-0.60203 z"
       sodipodi:nodetypes="scccccssssscsscccccccsccsccsssccssccssssscccsssccccssscccscssscssscccccccccsssssccccccssssscsssccssssscccccsscccssccsscccsssssssssssssssssssscccccccccscsssccccscccssssssscccscccsssccccccsssssscccscccccssssscccssssssscsssccsssssscsssssssssscsssssssccccscssssscscccssssccssssssssscsscssscscccccsscsssscccccscccsssssssssccsssccssscccsccssssssssssssssccsssssscccsssssssscssssssssssssssssssscscs"
       inkscape:label="Drone" /></g><g
     inkscape:groupmode="layer"
     id="layer1"
     inkscape:label="Shapes"><path
       id="rect4"
       style="opacity:0.820922;fill:#1e90ff;stroke:#32cd32;stroke-width:0;stroke-linecap:round;stroke-linejoin:round;stroke-dasharray:none;paint-order:markers stroke fill"
       d="M 50.301322 25.307499 C 49.843444 25.307499 49.4745 25.675927 49.4745 26.133805 L 49.4745 31.208948 A 3.5041218 2.3117049 0 0 0 46.771822 33.455839 A 3.5041218 2.3117049 0 0 0 46.781641 33.554024 L 46.775439 33.554024 L 46.775439 36.956401 A 4.2815499 2.3097377 0 0 0 46.012179 38.264331 A 4.2815499 2.3097377 0 0 0 50.293571 40.574268 A 4.2815499 2.3097377 0 0 0 54.57548 38.264331 A 4.2815499 2.3097377 0 0 0 53.777079 36.922294 L 53.777079 33.554024 L 53.770361 33.554024 A 3.5041218 2.3117049 0 0 0 53.78018 33.455839 A 3.5041218 2.3117049 0 0 0 51.127629 31.214115 L 51.127629 26.133805 C 51.127629 25.675927 50.759201 25.307499 50.301322 25.307499 z M 50.263082 36.668046 A 2.9588909 1.5826522 0 0 1 53.222074 38.250378 A 2.9588909 1.5826522 0 0 1 50.263082 39.833228 A 2.9588909 1.5826522 0 0 1 47.304089 38.250378 A 2.9588909 1.5826522 0 0 1 50.263082 36.668046 z "
       inkscape:label="Engin1" /><path
       id="ellipse4"
       style="opacity:0.820922;fill:#000000;stroke:#32cd32;stroke-width:0;stroke-linecap:round;stroke-linejoin:round;stroke-dasharray:none;paint-order:markers stroke fill"
       d="m 136.06495,0 c -0.57756,0 -1.04231,0.46475538 -1.04231,1.0423136 v 2.1058147 c -6.5703,-0.3995502 -13.84804,-0.8925292 -20.58376,-0.8526612 -1.01864,0.00603 -2.02447,0.024158 -3.01273,0.056844 -7.48264,0.3134822 -9.87785,1.5387981 -9.95805,3.1791341 h 33.55454 v 2.9837972 c -2.07713,0.3290818 -3.60691,1.4688575 -3.81682,2.8437546 h -0.0837 v 0.316259 c -6.9e-4,0.0026 -0.001,0.0052 -0.002,0.0078 6.8e-4,0.0028 0.001,0.0055 0.002,0.0083 v 4.986776 c -0.69637,0.557012 -1.0713,1.216478 -1.0759,1.892391 3e-4,1.857093 2.73835,3.362501 6.11591,3.362585 3.37776,7.1e-5 6.11612,-1.505383 6.11642,-3.362585 -5.9e-4,-0.679822 -0.37589,-1.343584 -1.07642,-1.90376 v -4.97334 c 8.7e-4,-0.0034 0.002,-0.0069 0.003,-0.01034 -8.5e-4,-0.0033 -0.002,-0.0065 -0.003,-0.0098 v -0.314192 h -0.0816 c -0.2049,-1.3614985 -1.70484,-2.4952309 -3.75481,-2.8380702 v -2.918262 c 7.56482,0.4600222 16.07161,1.0446771 23.59598,0.795817 7.48264,-0.3134822 9.87784,-1.5387981 9.95804,-3.1791341 H 137.36565 V 1.0423136 C 137.36565,0.46475538 136.9009,0 136.32334,0 Z m 0.13174,16.356812 c 1.62706,-4e-5 4.24284,0.914749 4.24271,2.213631 1.3e-4,1.298881 -1.91493,2.351854 -4.27725,2.351794 -2.36212,-9.2e-5 -4.27688,-1.05302 -4.27675,-2.351794 -1.3e-4,-1.298774 2.68438,-2.213591 4.31129,-2.213631 z"
       sodipodi:nodetypes="sscscccccccccccsccccccccccccsssccccc" /><path
       id="path9"
       style="opacity:0.820922;fill:#000000;stroke:#32cd32;stroke-width:0;stroke-linecap:round;stroke-linejoin:round;stroke-dasharray:none;paint-order:markers stroke fill"
       d="m 50.202119,25.357378 c -0.398075,0 -0.718401,0.320325 -0.718401,0.718403 v 1.451418 c -4.52853,-0.275387 -9.544657,-0.615166 -14.187198,-0.587691 -0.70209,0.0049 -1.395351,0.01666 -2.076502,0.03919 -5.157352,0.216063 -6.808231,1.060603 -6.863508,2.191193 h 23.127207 v 2.056556 c -1.43165,0.226815 -2.486035,1.012397 -2.630716,1.960034 h -0.05769 v 0.217974 c -4.81e-4,0.0026 -6.91e-4,0.0049 -0.002,0.0049 4.67e-4,0.0028 6.89e-4,0.0049 0.002,0.0053 v 3.437096 c -0.479971,0.383917 -0.73839,0.838449 -0.741557,1.304314 2.06e-4,1.279989 1.887384,2.317576 4.215341,2.317637 2.328092,5.3e-5 4.215489,-1.037573 4.215695,-2.317637 -4.06e-4,-0.468559 -0.259076,-0.926053 -0.741913,-1.31215 v -3.427882 c 5.99e-4,-0.0034 0.002,-0.0049 0.003,-0.0066 -5.86e-4,-0.0033 -0.002,-0.0049 -0.003,-0.0061 v -0.216482 h -0.05623 C 53.545411,32.248835 52.511586,31.46742 51.09866,31.231117 v -2.011353 c 5.213994,0.317062 11.077233,0.720029 16.263348,0.548504 5.157353,-0.216062 6.808224,-1.060602 6.863501,-2.191191 H 51.098612 v -1.500671 c 0,-0.39808 -0.320323,-0.718407 -0.718402,-0.718407 z m 0.0908,11.273804 c 1.121437,-3e-5 2.924345,0.630483 2.924254,1.525728 9.1e-5,0.895243 -1.319847,1.620993 -2.948063,1.620959 -1.628069,-7.1e-5 -2.947805,-0.725789 -2.947716,-1.620959 -8.9e-5,-0.895167 1.850192,-1.525699 2.971525,-1.525728 z"
       sodipodi:nodetypes="sscscccccccccccsccccccccccccsssccccc" /><path
       id="path10"
       style="opacity:0.820922;fill:#000000;stroke:#32cd32;stroke-width:0;stroke-linecap:round;stroke-linejoin:round;stroke-dasharray:none;paint-order:markers stroke fill"
       d="m 120.47561,25.357378 c -0.39808,0 -0.7184,0.320325 -0.7184,0.718403 v 1.451418 c -4.52853,-0.275387 -9.54466,-0.615166 -14.1872,-0.587691 -0.70209,0.0049 -1.39535,0.01666 -2.0765,0.03919 -5.15735,0.216063 -6.80823,1.060603 -6.86351,2.191193 h 23.12721 v 2.056556 c -1.43165,0.226815 -2.48604,1.012397 -2.63072,1.960034 h -0.0577 v 0.217974 c -4.8e-4,0.0026 -6.9e-4,0.0049 -0.002,0.0049 4.7e-4,0.0028 6.9e-4,0.0049 0.002,0.0053 v 3.437096 c -0.47997,0.383917 -0.73839,0.838449 -0.74156,1.304314 2.1e-4,1.279989 1.88739,2.317576 4.21534,2.317637 2.3281,5.3e-5 4.21549,-1.037573 4.2157,-2.317637 -4.1e-4,-0.468559 -0.25908,-0.926053 -0.74191,-1.31215 v -3.427882 c 6e-4,-0.0034 0.002,-0.0049 0.003,-0.0066 -5.9e-4,-0.0033 -0.002,-0.0049 -0.003,-0.0061 v -0.216482 h -0.0562 c -0.14124,-0.938016 -1.17506,-1.719431 -2.58799,-1.955734 v -2.011353 c 5.21399,0.317062 11.07723,0.720029 16.26335,0.548504 5.15735,-0.216062 6.80822,-1.060602 6.8635,-2.191191 h -23.1269 v -1.500671 c 0,-0.39808 -0.32032,-0.718407 -0.7184,-0.718407 z m 0.0908,11.273804 c 1.12144,-3e-5 2.92434,0.630483 2.92425,1.525728 9e-5,0.895243 -1.31984,1.620993 -2.94806,1.620959 -1.62807,-7.1e-5 -2.94781,-0.725789 -2.94772,-1.620959 -9e-5,-0.895167 1.8502,-1.525699 2.97153,-1.525728 z"
       sodipodi:nodetypes="sscscccccccccccsccccccccccccsssccccc" /><path
       id="path11"
       style="opacity:0.820922;fill:#000000;stroke:#32cd32;stroke-width:0;stroke-linecap:round;stroke-linejoin:round;stroke-dasharray:none;paint-order:markers stroke fill"
       d="M 35.00685,0 C 34.42929,0 33.96454,0.46475538 33.96454,1.0423136 V 3.1481283 C 27.39424,2.7485781 20.1165,2.2555991 13.38078,2.2954671 12.36214,2.3014971 11.35631,2.3196251 10.36805,2.3523111 2.88541,2.6657933 0.4902,3.8911092 0.41,5.5314452 h 33.55454 v 2.9837972 c -2.07713,0.3290818 -3.60691,1.4688575 -3.81682,2.8437546 h -0.0837 v 0.316259 c -6.9e-4,0.0026 -10e-4,0.0052 -0.002,0.0078 6.8e-4,0.0028 0.001,0.0055 0.002,0.0083 v 4.986776 c -0.69637,0.557012 -1.0713,1.216478 -1.0759,1.892391 3e-4,1.857093 2.73835,3.362501 6.11591,3.362585 3.37776,7.1e-5 6.11612,-1.505383 6.11642,-3.362585 -5.9e-4,-0.679822 -0.37589,-1.343584 -1.07642,-1.90376 v -4.97334 c 8.7e-4,-0.0034 0.002,-0.0069 0.003,-0.01034 -8.5e-4,-0.0033 -0.002,-0.0065 -0.003,-0.0098 v -0.314192 h -0.0816 C 39.85753,9.9975925 38.35759,8.8638601 36.30762,8.5210208 V 5.6027588 C 43.87244,6.062781 52.37923,6.6474359 59.9036,6.3985758 67.38624,6.0850936 69.78144,4.8597777 69.86164,3.2194417 H 36.30755 V 1.0423136 C 36.30755,0.46475538 35.8428,0 35.26524,0 Z m 0.13174,16.356812 c 1.62706,-4e-5 4.24284,0.914749 4.24271,2.213631 1.3e-4,1.298881 -1.91493,2.351854 -4.27725,2.351794 -2.36212,-9.2e-5 -4.27688,-1.05302 -4.27675,-2.351794 -1.3e-4,-1.298774 2.68438,-2.213591 4.31129,-2.213631 z"
       sodipodi:nodetypes="sscscccccccccccsccccccccccccsssccccc" /></g></svg>
